name Walk8.mot
datacolumns 19
datarows 27
range 2.78100000 2.80700000
endheader

                time	   L_ground_force_vx	   L_ground_force_vy	   L_ground_force_vz	   L_ground_force_px	   L_ground_force_py	   L_ground_force_pz	   R_ground_force_vx	   R_ground_force_vy	   R_ground_force_vz	   R_ground_force_px	   R_ground_force_py	   R_ground_force_pz	   L_ground_torque_x	   L_ground_torque_y	   L_ground_torque_z	   R_ground_torque_x	   R_ground_torque_y	   R_ground_torque_z	
          2.78100000	         -1.82152483	         67.66214345	         -4.83259895	          0.00061424	          0.00000000	          0.00029953	         -0.00000000	         -0.00000000	          0.00000000	         -0.00000000	          0.00000000	         -0.00000000	          0.00000000	          0.19247232	          0.00000000	          0.00000000	          0.00000000	          0.00000000	
          2.78200000	         -2.55413859	         76.12341130	         -5.33471354	         -0.01340542	          0.00000000	          0.00204296	         -0.00000000	         -0.00000000	          0.00000000	         -0.00000000	          0.00000000	         -0.00000000	          0.00000000	          0.21377837	          0.00000000	          0.00000000	          0.00000000	          0.00000000	
          2.78300000	         -3.32525720	         84.74746206	         -5.85407282	         -0.02737045	          0.00000000	          0.00378152	         -0.00000000	         -0.00000000	          0.00000000	         -0.00000000	          0.00000000	         -0.00000000	          0.00000000	          0.23571605	          0.00000000	          0.00000000	          0.00000000	          0.00000000	
          2.78400000	         -4.13556480	         93.51936768	         -6.39024000	         -0.04123566	          0.00000000	          0.00550962	         -0.00000000	         -0.00000000	          0.00000000	         -0.00000000	          0.00000000	         -0.00000000	          0.00000000	          0.25826189	          0.00000000	          0.00000000	          0.00000000	          0.00000000	
          2.78500000	         -4.98570808	        102.42297269	         -6.94269370	         -0.05495708	          0.00000000	          0.00722184	         -0.00000000	         -0.00000000	         -0.00000000	         -0.00000000	          0.00000000	         -0.00000000	          0.00000000	          0.28138888	          0.00000000	          0.00000000	          0.00000000	          0.00000000	
          2.78600000	         -5.87630443	        111.44093170	         -7.51082901	         -0.06849355	          0.00000000	          0.00891312	         -0.00000000	         -0.00000000	         -0.00000000	         -0.00000000	          0.00000000	         -0.00000000	          0.00000000	          0.30506636	          0.00000000	          0.00000000	          0.00000000	          0.00000000	
          2.78700000	         -6.80794833	        120.55482569	         -8.09395715	         -0.08180782	          0.00000000	          0.01057892	         -0.00000000	         -0.00000001	         -0.00000000	         -0.00000000	          0.00000000	         -0.00000000	          0.00000000	          0.32926006	          0.00000000	          0.00000000	          0.00000000	          0.00000000	
          2.78800000	         -7.78120880	        129.74535132	         -8.69129982	         -0.09486662	          0.00000000	          0.01221520	         -0.00000000	         -0.00000001	         -0.00000000	         -0.00000000	          0.00000000	         -0.00000000	          0.00000000	          0.35393219	          0.00000000	          0.00000000	          0.00000000	          0.00000000	
          2.78900000	         -8.79661905	        138.99260003	         -9.30197835	         -0.10764045	          0.00000000	          0.01381836	         -0.00000000	         -0.00000001	         -0.00000000	         -0.00000000	          0.00000000	         -0.00000000	          0.00000000	          0.37904178	          0.00000000	          0.00000000	          0.00000000	          0.00000000	
          2.79000000	         -9.85465862	        148.27642486	         -9.92499805	         -0.12010335	          0.00000000	          0.01538521	         -0.00000000	         -0.00000001	         -0.00000000	         -0.00000000	          0.00000000	         -0.00000000	          0.00000000	          0.40454517	          0.00000000	          0.00000000	          0.00000000	          0.00000000	
          2.79100000	        -10.95572782	        157.57686508	        -10.55922846	         -0.13223269	          0.00000000	          0.01691294	         -0.00000000	         -0.00000001	         -0.00000000	         -0.00000000	          0.00000000	         -0.00000000	          0.00000000	          0.43039660	          0.00000000	          0.00000000	         -0.00000000	          0.00000000	
          2.79200000	        -12.10011570	        166.87457998	        -11.20338199	         -0.14400902	          0.00000000	          0.01839908	         -0.00000000	         -0.00000001	         -0.00000000	         -0.00000000	          0.00000000	         -0.00000000	          0.00000000	          0.45654879	          0.00000000	          0.00000000	         -0.00000000	          0.00000000	
          2.79300000	        -13.28796379	        176.15123780	        -11.85599416	         -0.15541582	          0.00000000	          0.01984147	         -0.00000000	         -0.00000001	         -0.00000000	         -0.00000000	          0.00000000	         -0.00000000	          0.00000000	          0.48295316	          0.00000000	          0.00000000	         -0.00000000	          0.00000000	
          2.79400000	        -14.51922954	        185.38981544	        -12.51540935	         -0.16643934	          0.00000000	          0.02123828	          0.00000000	         -0.00000001	         -0.00000000	         -0.00000000	          0.00000000	         -0.00000000	          0.00000000	          0.50955981	          0.00000000	          0.00000000	         -0.00000000	          0.00000000	
          2.79500000	        -15.79365322	        194.57478738	        -13.17977504	         -0.17706842	          0.00000000	          0.02258796	          0.00000000	         -0.00000001	         -0.00000000	         -0.00000000	          0.00000000	         -0.00000000	          0.00000000	          0.53631708	          0.00000000	          0.00000000	         -0.00000000	          0.00000000	
          2.79600000	        -17.11073181	        203.69220640	        -13.84704617	         -0.18729431	          0.00000000	          0.02388922	          0.00000000	         -0.00000002	         -0.00000000	         -0.00000000	          0.00000000	         -0.00000000	          0.00000000	          0.56317088	          0.00000000	          0.00000000	         -0.00000000	          0.00000000	
          2.79700000	        -18.46970198	        212.72969685	        -14.51499956	         -0.19711050	          0.00000000	          0.02514106	          0.00000000	         -0.00000002	         -0.00000000	         -0.00000000	          0.00000000	         -0.00000000	          0.00000000	          0.59006406	          0.00000000	          0.00000000	         -0.00000000	          0.00000000	
          2.79800000	        -19.86953274	        221.67639001	        -15.18125667	         -0.20651257	          0.00000000	          0.02634270	          0.00000000	         -0.00000002	         -0.00000000	         -0.00000000	          0.00000000	         -0.00000000	          0.00000000	          0.61693595	          0.00000000	          0.00000000	         -0.00000000	          0.00000000	
          2.79900000	        -21.30892740	        230.52283023	        -15.84331246	         -0.21549802	          0.00000000	          0.02749360	          0.00000000	         -0.00000002	         -0.00000000	         -0.00000000	          0.00000000	         -0.00000000	          0.00000000	          0.64372218	          0.00000000	          0.00000000	         -0.00000000	          0.00000000	
          2.80000000	        -22.78633377	        239.26087577	        -16.49856763	         -0.22406610	          0.00000000	          0.02859341	          0.00000000	         -0.00000002	         -0.00000000	         -0.00000000	          0.00000000	         -0.00000000	          0.00000000	          0.67035480	          0.00000000	          0.00000000	         -0.00000000	          0.00000000	
          2.80100000	        -24.29996145	        247.88360917	        -17.14436213	         -0.23221768	          0.00000000	          0.02964198	          0.00000000	         -0.00000002	         -0.00000000	         -0.00000000	          0.00000000	         -0.00000000	          0.00000000	          0.69676262	          0.00000000	          0.00000000	         -0.00000000	          0.00000000	
          2.80200000	        -25.84780524	        256.38526455	        -17.77800774	         -0.23995510	          0.00000000	          0.03063936	          0.00000000	         -0.00000002	         -0.00000000	         -0.00000000	          0.00000000	         -0.00000000	          0.00000000	          0.72287166	          0.00000000	          0.00000000	         -0.00000000	          0.00000000	
          2.80300000	        -27.42767440	        264.76117185	        -18.39681870	         -0.24728204	          0.00000000	          0.03158572	          0.00000000	         -0.00000003	         -0.00000000	         -0.00000000	          0.00000000	         -0.00000000	          0.00000000	          0.74860548	          0.00000000	          0.00000000	         -0.00000000	          0.00000000	
          2.80400000	        -29.03722792	        273.00771414	        -18.99813924	         -0.25420337	          0.00000000	          0.03248142	          0.00000000	         -0.00000003	         -0.00000000	         -0.00000000	          0.00000000	         -0.00000000	          0.00000000	          0.77388550	          0.00000000	          0.00000000	         -0.00000000	          0.00000000	
          2.80500000	        -30.67401585	        281.12229197	        -19.57936783	         -0.26072504	          0.00000000	          0.03332692	          0.00000000	         -0.00000003	         -0.00000000	         -0.00000000	          0.00000000	         -0.00000000	          0.00000000	          0.79863104	          0.00000000	          0.00000000	         -0.00000000	          0.00000000	
          2.80600000	        -32.33552649	        289.10328900	        -20.13797822	         -0.26685397	          0.00000000	          0.03412283	          0.00000000	         -0.00000003	         -0.00000000	         -0.00000000	          0.00000000	         -0.00000000	          0.00000000	          0.82275955	          0.00000000	          0.00000000	         -0.00000000	          0.00000000	
          2.80700000	        -34.01923847	        296.95003442	        -20.67153757	         -0.27259793	          0.00000000	          0.03486987	          0.00000000	         -0.00000003	         -0.00000000	         -0.00000000	          0.00000000	         -0.00000000	          0.00000000	          0.84618692	          0.00000000	          0.00000000	         -0.00000000	          0.00000000	
